<?xml version="1.0" standalone="no"?><!DOCTYPE svg PUBLIC "-//W3C//DTD SVG 1.1//EN" "http://www.w3.org/Graphics/SVG/1.1/DTD/svg11.dtd"><svg t="1764502873179" class="icon" viewBox="0 0 1024 1024" version="1.1" xmlns="http://www.w3.org/2000/svg" p-id="13567" xmlns:xlink="http://www.w3.org/1999/xlink" width="200" height="100"><path d="M1004.117914 469.504L564.821914 942.08c-28.672 29.184-75.776 29.184-104.448 0L20.565914 469.504C-8.618086 440.32-5.034086 396.288 20.565914 364.544l175.616-266.24c14.336-17.408 33.792-32.256 56.832-36.864h518.144c23.04 4.608 42.496 19.456 56.832 36.864l175.616 266.24c25.088 30.72 29.184 75.776 0.512 104.96z" fill="#FFC14A" p-id="13568"></path><path d="M0.085914 422.912c1.024 16.384 7.68 33.28 20.48 46.592L459.861914 942.08c28.672 29.184 75.776 29.184 104.448 0L1003.605914 469.504c12.8-13.312 19.456-31.232 19.968-46.592H0.085914z" fill="#FFA72C" p-id="13569"></path><path d="M713.813914 422.912L512.085914 963.584 308.821914 422.912z" fill="#FFB753" p-id="13570"></path><path d="M714.837914 422.912L513.109914 61.44 309.333914 422.912z" fill="#FFD179" p-id="13571"></path><path d="M258.645914 61.44h-5.632c-23.04 4.608-42.496 19.456-56.832 36.864L20.565914 364.544c-14.336 17.408-20.992 38.4-20.48 58.368h308.224L258.645914 61.44zM765.525914 61.44h5.632c23.04 4.608 42.496 19.456 56.832 36.864l175.616 266.24c13.824 17.408 20.992 38.4 19.968 58.88h-308.224l50.176-361.984z" fill="#FFB144" p-id="13572"></path><path d="M489.045914 697.856c-5.632 0-10.24-4.608-10.24-10.24v-147.456c-0.512 1.536-1.024 3.072-2.048 4.096L440.405914 588.8c-2.048 2.56-4.608 3.584-7.68 3.584h-1.536c-3.584-0.512-6.656-3.072-7.68-6.144-2.048-6.144-5.632-13.312-9.216-21.504V686.08c0 5.632-4.608 10.24-10.24 10.24h-51.2c-5.632 0-10.24-4.608-10.24-10.24v-88.064c-8.192 16.896-15.872 31.232-24.064 42.496-2.048 2.56-5.12 4.096-8.192 4.096h-1.536c-3.584-0.512-6.656-3.072-8.192-7.168-4.608-15.36-16.384-38.912-24.576-54.784-1.536-3.584-3.072-10.752-0.512-13.824 22.016-27.648 41.984-72.192 55.296-109.056h-39.424c-5.632 0-10.24-4.608-10.24-10.24V396.288c0-5.632 4.608-10.24 10.24-10.24h11.264v-1.024c-1.024-26.624-9.728-71.168-21.504-105.984 0.512-2.048 0.512-5.12 2.048-7.68 1.536-2.56 3.584-4.096 6.144-5.12l37.376-9.728c1.024 0 1.536-0.512 2.56-0.512 4.096 0 7.68 2.56 9.216 6.656 1.536 4.096 3.072 8.192 4.096 12.288v-36.352c0-5.632 4.608-10.24 10.24-10.24h51.2c5.632 0 10.24 4.608 10.24 10.24V271.36c0.512-3.072 1.024-5.632 1.536-8.704 0.512-2.56 2.048-5.12 4.096-6.656 1.536-1.024 3.584-1.536 5.632-1.536h2.048l43.52 9.216c1.536-1.024 3.584-1.536 5.632-1.536h83.968v-24.064c0-5.632 4.608-10.24 10.24-10.24h54.272c5.632 0 10.24 4.608 10.24 10.24v24.064h93.184c5.632 0 10.24 4.608 10.24 10.24v40.96c0 5.632-4.608 10.24-10.24 10.24H722.005914c3.584 1.536 6.144 5.12 6.144 9.216v37.888c0 5.632-4.608 10.24-10.24 10.24h-82.432v1.024h104.96c5.632 0 10.24 4.608 10.24 10.24v41.472c0 5.632-4.608 10.24-10.24 10.24H716.885914c3.584 1.536 6.144 5.12 6.144 9.216v183.296c0 20.992-3.072 41.984-27.136 52.736-13.312 6.144-30.72 8.704-61.44 8.704h-12.8c-5.12 0-9.216-3.584-9.728-8.704-2.048-12.8-8.704-31.232-14.336-42.496-1.536-3.072-1.536-7.168 0.512-9.728s5.12-4.608 8.192-4.608h0.512c10.24 0.512 21.504 1.024 29.696 1.024h11.776v-7.68h-96.768v63.488c0 5.632-4.608 10.24-10.24 10.24H489.045914z m159.744-130.56v-3.584h-96.768v3.584h96.768z m-225.28-107.008c17.92 22.016 46.08 60.928 54.272 72.704 0.512 1.024 1.024 2.048 1.536 3.584V452.608c0-4.096 2.56-7.68 6.144-9.216h-22.016c-1.024 0-2.048 0-3.072-0.512v7.168c0 5.632-4.608 10.24-10.24 10.24h-26.624z m225.28 46.592v-3.584h-96.768v3.584h96.768zM450.645914 387.072c1.536 0 2.56 0.512 4.096 0.512 1.536-3.584 5.12-6.144 9.216-6.144h97.28v-1.024H488.533914c-5.632 0-10.24-4.608-10.24-10.24v-37.888c0-4.096 2.56-7.68 6.144-9.216h-7.68c-3.584 0-7.168-2.048-8.704-5.12-8.192 25.6-15.872 50.688-23.552 69.12H450.645914z" fill="#FFFFFF" p-id="13573"></path><path d="M625.237914 237.568v34.304h103.424v40.96h-103.424v19.456h92.672v37.888h-92.672v20.992h114.688v41.472h-276.48v-41.472h107.52v-20.992H488.533914v-37.888h82.432v-19.456H477.269914v-40.96h94.208v-34.304h53.76m-220.672 1.536v122.88c8.704-29.696 16.896-69.12 21.504-97.792l45.568 9.728c-11.776 37.888-24.576 82.432-36.352 110.592l-30.72-8.704v20.992h46.08v53.248h-46.08v4.608l1.024-1.024c12.8 13.312 54.784 70.656 64 84.48l-36.352 44.544c-5.632-15.36-16.896-38.912-28.672-60.928V686.08H353.365914v-138.752c-12.8 34.304-26.624 65.536-41.984 88.064-5.12-17.408-18.432-43.008-26.624-59.392 23.552-29.696 47.104-81.408 61.44-125.44H292.437914V396.288h60.416v-20.992l-39.424 9.216c-0.512-28.672-10.24-74.24-21.504-108.032l37.376-9.728c12.288 32.256 21.504 74.24 23.552 103.936V239.104H404.565914m308.224 213.504v183.296c0 23.552-4.608 36.352-21.504 43.52-13.312 6.144-32.768 7.68-57.344 7.68h-12.288c-2.048-13.312-8.704-32.256-14.848-45.568 10.752 0.512 22.016 1.024 30.72 1.024 6.144 0 11.264 0 13.312-0.512 6.144 0 8.192-2.048 8.192-7.168v-20.48h-116.736v73.216H489.045914v-235.52h223.744m-171.008 64.512h116.736v-23.552h-116.736v23.552m0 60.928h116.736v-23.552h-116.736v23.552m83.456-359.936h-54.272c-11.264 0-19.968 9.216-19.968 19.968v14.336H477.269914c-2.56 0-4.608 0.512-7.168 1.024l-40.448-8.704c-1.536-0.512-2.56-0.512-4.096-0.512h-1.024v-5.12c0-11.264-9.216-19.968-19.968-19.968H353.365914c-11.264 0-19.968 9.216-19.968 19.968v7.68c-1.024 0-2.56-0.512-3.584-0.512-1.536 0-3.584 0-5.12 0.512L286.805914 257.024c-5.632 1.536-9.728 5.12-12.8 9.728-2.56 5.12-3.072 10.752-1.536 15.872 9.728 30.208 17.92 67.584 20.48 93.696h-0.512c-11.264 0-19.968 9.216-19.968 19.968v53.76c0 11.264 9.216 19.968 19.968 19.968h24.576c-14.848 37.888-32.768 72.704-48.64 92.672-4.608 6.144-5.632 14.336-2.048 21.504l1.536 3.072c7.68 15.36 19.456 38.4 24.064 53.248 2.048 7.168 8.704 12.8 15.872 13.824h3.072c6.656 0 12.8-3.072 16.384-8.704 2.048-2.56 3.584-5.632 5.632-8.192v48.128c0 11.264 9.216 19.968 19.968 19.968h51.2c11.264 0 19.968-9.216 19.968-19.968v-84.992c1.536 0.512 3.584 1.536 5.12 1.536 1.024 0 2.048 0.512 3.072 0.512 6.144 0 11.776-2.56 15.36-7.168l20.48-25.088v117.76c0 11.264 9.216 19.968 19.968 19.968h52.736c11.264 0 19.968-9.216 19.968-19.968V634.88h25.6c-2.048 5.12-1.536 10.752 1.024 15.872 6.144 12.8 11.776 29.696 13.312 39.424 1.536 9.728 9.728 16.896 19.456 17.408h12.8c23.552 0 47.616-1.024 66.048-9.728 29.184-12.8 32.768-38.4 32.768-61.44V453.12h7.68c11.264 0 19.968-9.216 19.968-19.968v-41.472c0-11.264-9.216-19.968-19.968-19.968h-2.048V332.8v-1.536c6.144-3.584 10.752-10.24 10.752-17.92v-40.96c0-11.264-9.216-19.968-19.968-19.968H645.205914v-14.336c0.512-11.264-8.704-20.48-19.968-20.48z m-163.84 154.112c2.56-6.656 4.608-13.824 7.168-21.504v21.504h-7.168z m-16.896 98.304H450.645914c8.704 0 15.872-5.12 18.432-12.8v46.08c-7.68-10.24-16.384-22.016-24.576-33.28z" fill="#EF910D" p-id="13574"></path></svg>