<svg id="visual" viewBox="0 0 768 50" width="768" height="50" xmlns="http://www.w3.org/2000/svg" xmlns:xlink="http://www.w3.org/1999/xlink" version="1.1"><path d="M0 15L70 15L70 12L140 12L140 13L209 13L209 9L279 9L279 10L349 10L349 6L419 6L419 8L489 8L489 12L559 12L559 12L628 12L628 5L698 5L698 6L768 6L768 8L768 0L768 0L698 0L698 0L628 0L628 0L559 0L559 0L489 0L489 0L419 0L419 0L349 0L349 0L279 0L279 0L209 0L209 0L140 0L140 0L70 0L70 0L0 0Z" fill="#fa7268"></path><path d="M0 18L70 18L70 18L140 18L140 20L209 20L209 13L279 13L279 16L349 16L349 11L419 11L419 12L489 12L489 17L559 17L559 17L628 17L628 9L698 9L698 14L768 14L768 15L768 6L768 4L698 4L698 3L628 3L628 10L559 10L559 10L489 10L489 6L419 6L419 4L349 4L349 8L279 8L279 7L209 7L209 11L140 11L140 10L70 10L70 13L0 13Z" fill="#f86360"></path><path d="M0 25L70 25L70 31L140 31L140 26L209 26L209 33L279 33L279 29L349 29L349 33L419 33L419 38L489 38L489 33L559 33L559 30L628 30L628 27L698 27L698 28L768 28L768 21L768 13L768 12L698 12L698 7L628 7L628 15L559 15L559 15L489 15L489 10L419 10L419 9L349 9L349 14L279 14L279 11L209 11L209 18L140 18L140 16L70 16L70 16L0 16Z" fill="#f55258"></path><path d="M0 43L70 43L70 45L140 45L140 43L209 43L209 41L279 41L279 46L349 46L349 43L419 43L419 48L489 48L489 45L559 45L559 47L628 47L628 40L698 40L698 45L768 45L768 42L768 19L768 26L698 26L698 25L628 25L628 28L559 28L559 31L489 31L489 36L419 36L419 31L349 31L349 27L279 27L279 31L209 31L209 24L140 24L140 29L70 29L70 23L0 23Z" fill="#f23e52"></path><path d="M0 51L70 51L70 51L140 51L140 51L209 51L209 51L279 51L279 51L349 51L349 51L419 51L419 51L489 51L489 51L559 51L559 51L628 51L628 51L698 51L698 51L768 51L768 51L768 40L768 43L698 43L698 38L628 38L628 45L559 45L559 43L489 43L489 46L419 46L419 41L349 41L349 44L279 44L279 39L209 39L209 41L140 41L140 43L70 43L70 41L0 41Z" fill="#ef234c"></path></svg>