<svg id="visual"
     viewBox="0 0 675 900"
     width="675"
     height="900"
     xmlns="http://www.w3.org/2000/svg"
     version="1.1">

  <!-- 定义圆角剪裁 -->
  <defs>
    <clipPath id="rounded">
      <rect x="0" y="0" width="675" height="900" rx="16" ry="16" />
    </clipPath>
  </defs>

  <!-- 把全部内容包进剪裁 -->
  <g clip-path="url(#rounded)">

    <rect x="0" y="0" width="675" height="900" fill="#fff"></rect>

    <path d="M0 819L16 814.5C32 810 64 801 96.2 785.2C128.3 769.3 160.7 746.7 192.8 733.3C225 720 257 716 289.2 720.3C321.3 724.7 353.7 737.3 385.8 750.7C418 764 450 778 482.2 782C514.3 786 546.7 780 578.8 765.2C611 750.3 643 726.7 659 714.8L675 703L675 901L659 901C643 901 611 901 578.8 901C546.7 901 514.3 901 482.2 901C450 901 418 901 385.8 901C353.7 901 321.3 901 289.2 901C257 901 225 901 192.8 901C160.7 901 128.3 901 96.2 901C64 901 32 901 16 901L0 901Z"
          fill="#ef234c"
          stroke-linecap="round"
          stroke-linejoin="miter">
    </path>

  </g>
</svg>
