<?xml version="1.0" standalone="no"?><!DOCTYPE svg PUBLIC "-//W3C//DTD SVG 1.1//EN" "http://www.w3.org/Graphics/SVG/1.1/DTD/svg11.dtd"><svg t="1764330805553" class="icon" viewBox="0 0 1024 1024" version="1.1" xmlns="http://www.w3.org/2000/svg" p-id="6790" xmlns:xlink="http://www.w3.org/1999/xlink" width="200" height="200"><path d="M749.59 322.18v78.77h-539.9L77.6 548.2l132.1 147.25h700.48v-294.5c-0.01 0-40-65.85-160.59-78.77z" fill="#FF7E00" p-id="6791"></path><path d="M377.64 569.8c-2.55-5.53-9.15-16.16-14.67-24.46v99.11h-12.55v-97.41c-7.02 21.27-16.16 42.54-25.31 55.51-1.49-3.62-4.89-8.93-7.23-12.12 11.06-14.89 22.97-42.11 29.56-65.72h-25.31v-13.4h28.29v-35.94c-7.66 1.91-15.53 3.4-22.76 4.68-0.64-3.19-2.55-7.66-4.04-10.85 19.14-4.04 41.9-9.78 54.87-16.59l8.51 11.27c-7.02 2.98-15.31 5.96-24.03 8.51v38.92h23.61v13.4h-23.61v6.38c5.1 5.53 19.14 23.18 22.33 27.86l-7.66 10.85z m57.21-38.71c-4.68 9.36-10.21 18.08-15.95 26.16h29.35v-19.57h12.97v19.57h43.81v53.81c0 6.59-1.06 10.21-5.95 12.34-4.47 2.13-11.91 2.13-22.55 2.13-0.64-3.62-2.34-8.51-4.25-11.91 8.08 0.21 14.46 0.21 16.8 0 2.13 0 2.76-0.64 2.76-2.55V569.8h-30.63v74.65h-12.97V569.8h-28.29v56.15h-12.97v-54.02c-4.47 4.68-9.15 9.36-14.04 13.4-2.13-2.77-7.02-7.87-10-10 14.68-11.27 27.44-26.59 37.22-44.24h-26.8v-12.34h32.97c3.4-6.81 6.17-14.04 8.29-21.27-10.21 4.68-21.06 8.51-31.26 11.91-1.91-2.76-6.17-8.29-9.15-11.06 16.16-4.68 32.75-10.63 48.49-17.65-13.82-5.74-28.29-10.85-41.47-14.89l8.51-9.36c14.89 4.47 31.48 10.42 47.22 16.8 12.76-6.59 23.82-14.25 32.33-22.33l11.91 5.53c-8.51 8.08-18.93 15.74-30.41 22.76 15.74 6.81 29.78 14.04 39.98 20.2l-8.29 10.42c-11.27-7.02-27.22-15.31-45.3-23.18-6.59 3.62-13.61 6.81-20.42 10l11.27 2.55c-2.34 6.59-4.47 13.4-7.44 19.57h74.44v12.34h-80.18zM608.4 491.75c-4.04 8.72-8.72 17.65-13.61 25.95h103.36v108.26c0 8.93-2.13 13.19-8.72 15.53-6.59 2.34-18.29 2.34-36.79 2.34-0.64-4.04-2.77-9.78-4.68-13.82 14.68 0.64 27.65 0.43 31.26 0.43 3.83-0.21 5.1-1.49 5.1-4.68v-23.61H593.3v42.11h-13.82V539.81c-10.63 13.4-22.76 25.52-36.58 35.31-1.91-3.19-6.38-8.29-9.15-10.85 25.73-17.65 45.51-44.03 59.34-72.52h-54.45v-13.4h60.4c3.83-9.14 7.02-18.5 9.36-27.65l14.25 3.19c-2.55 8.29-5.32 16.38-8.51 24.46h109.11v13.4H608.4z m75.93 38.71H593.3v23.18h91.03v-23.18z m0 59.34v-23.82H593.3v23.82h91.03z" fill="#FFFFFF" p-id="6792"></path></svg>