<?xml version="1.0" standalone="no"?><!DOCTYPE svg PUBLIC "-//W3C//DTD SVG 1.1//EN" "http://www.w3.org/Graphics/SVG/1.1/DTD/svg11.dtd"><svg t="1764332810557" class="icon" viewBox="0 0 1536 1024" version="1.1" xmlns="http://www.w3.org/2000/svg" p-id="11772" width="300" height="200" xmlns:xlink="http://www.w3.org/1999/xlink"><path d="M440.438154 54.272l1015.296 271.990154c49.860923 13.390769 78.848 66.756923 64.787692 119.335384l-127.409231 475.490462c-14.099692 52.539077-65.929846 84.283077-115.790769 70.892308l-99.209846-26.545231a169.472 169.472 0 0 0-24.576-32.295385 658.116923 658.116923 0 0 0-22.409846-48.285538l163.209846 43.716923c15.399385 4.174769 31.428923-4.647385 37.376-19.968l1.181538-3.623385 127.448616-475.529846c4.332308-16.265846-3.702154-32.768-18.156308-38.596923l-3.465846-1.181538-958.739692-256.866462a148.834462 148.834462 0 0 0-16.541539-24.024615c-14.651077-16.541538-20.992-33.831385-23.000615-54.508308zM282.033231 11.776l96.886154 25.993846c11.815385 11.145846 22.882462 22.055385 32.649846 32.334769 17.447385 18.510769 30.562462 37.139692 40.526769 55.217231l-187.076923-50.136615c-15.399385-4.135385-31.389538 4.726154-37.376 20.007384l-1.181539 3.623385-127.40923 475.529846c-4.332308 16.265846 3.662769 32.768 18.116923 38.596923l3.465846 1.181539L1059.446154 865.634462c6.025846 21.267692 14.178462 46.867692 21.385846 73.688615l-977.132308-261.789539c-49.860923-13.390769-78.887385-66.796308-64.787692-119.335384L166.281846 82.707692C180.342154 30.168615 232.172308-1.575385 282.072615 11.815385z m585.728 581.828923l308.145231 82.550154-37.809231 141.075692-44.268308-11.854769 5.513846-20.558769-221.853538-59.470769-5.513846 20.558769-42.023385-11.264 37.809231-141.036308z m32.846769 45.489231l-14.099692 52.499692 221.892923 59.470769 14.060307-52.539077-221.853538-59.470769zM444.416 210.589538l332.327385 89.009231-57.501539 214.567385-43.795692-11.736616 5.868308-21.897846-223.704616-59.943384-29.459692 110.00123c-7.601231 28.317538-0.039385 36.706462 49.230769 49.900308l162.540308 43.559385c48.403692 12.957538 59.352615 1.220923 84.125538-67.505231 9.924923 10.515692 27.136 22.921846 38.833231 28.514462-31.744 81.998769-55.256615 102.124308-133.750154 81.132307l-161.595077-43.323077c-79.005538-21.149538-99.721846-42.377846-83.101538-104.487384l58.958769-220.002462 43.835077 11.736616-18.510769 68.923076 223.704615 59.943385 29.380923-109.568-288.531692-77.312 11.145846-41.550769zM978.944 322.953846l35.84 23.315692c-8.231385 10.515692-18.510769 21.464615-28.514462 31.507693l93.577847 25.088c-2.166154-13.784615-4.450462-29.105231-7.75877-42.220308l41.865847-1.024c5.080615 17.526154 9.649231 38.793846 11.539692 55.453539l127.842461 34.264615-8.310153 31.035077-132.844308-35.603692-7.089231 26.466461 110.434462 29.617231-7.68 28.750769-110.473847-29.577846-6.971076 25.993846 111.379692 29.853539-7.719385 28.750769-111.379692-29.814154-7.719385 28.750769 143.832616 38.518154-8.664616 32.413538-292.233846-78.296615-4.371692 16.462769-41.550769-11.145846 36.942769-137.846154c-14.966154 10.161231-30.601846 19.180308-44.898462 27.096616a328.625231 328.625231 0 0 0-20.558769-40.251077c47.931077-21.897846 98.934154-62.542769 135.483077-107.52z m-44.622769 192.078769l-7.719385 28.75077 106.850462 28.632615 7.68-28.750769-106.811077-28.632616z m14.690461-54.744615l-6.971077 25.993846 106.811077 28.632616 6.971077-26.033231-106.811077-28.632616z m14.769231-55.256615l-7.089231 26.466461 106.850462 28.632616 7.089231-26.505847-106.850462-28.59323z" fill="#EB1010" p-id="11773"></path></svg>