<?xml version="1.0" standalone="no"?><!DOCTYPE svg PUBLIC "-//W3C//DTD SVG 1.1//EN" "http://www.w3.org/Graphics/SVG/1.1/DTD/svg11.dtd"><svg t="1764331254672" class="icon" viewBox="0 0 1024 1024" version="1.1" xmlns="http://www.w3.org/2000/svg" p-id="7810" xmlns:xlink="http://www.w3.org/1999/xlink" width="200" height="200"><path d="M517.12 506.7264m-453.5808 0a453.5808 453.5808 0 1 0 907.1616 0 453.5808 453.5808 0 1 0-907.1616 0Z" fill="#F4673D" p-id="7811"></path><path d="M964.4032 582.2976l-226.7648-211.2512-20.6336 12.1856-136.0384-113.3568-186.88 208.128-120.064 182.8864 122.5216 283.2384c4.7616 1.3312 9.5744 2.56 14.3872 3.6864 0.0512 0 0.1536 0.0512 0.2048 0.0512 9.5232 2.304 19.2 4.2496 28.928 5.9392 0.4608 0.1024 0.9216 0.1536 1.3824 0.256 4.2496 0.7168 8.5504 1.3824 12.8512 1.9456l2.0992 0.3072c9.3696 1.28 18.8416 2.2016 28.3648 2.9184 1.1776 0.1024 2.3552 0.1536 3.5328 0.2048 3.584 0.2048 7.168 0.4096 10.752 0.5632l3.9424 0.1536c4.6592 0.1536 9.3696 0.256 14.08 0.256 224.8192-0.1024 411.392-163.584 447.3344-378.112z" fill="#E7390F" p-id="7812"></path><path d="M334.4384 513.8432s-16.1792-96.1024 77.2096-175.104c25.1392-17.9712 43.1104-98.7648 37.7344-133.7856 53.8624 15.2576 193.9456 51.2 203.8272 231.68 20.6336-62.8736 84.4288-65.536 84.4288-65.536s-8.96 71.8336 26.9312 149.9648c35.9424 78.1312 26.0608 261.3248-141.8752 291.84 12.5952-82.6368 51.2-139.2128-84.4288-246.0672-35.0208 63.744-32.3072 66.4576-67.328 109.568-35.0208 43.1104-25.1392 129.3312-2.7136 146.3808C381.1328 810.1888 185.344 707.7888 302.08 457.2672c22.4768 14.336 32.3584 56.576 32.3584 56.576z" fill="#FFFFFF" p-id="7813"></path></svg>